2014001_C1_01_grf
version=1
nRows=37
nColumns=19
inDegrees=no
endheader
time	ground_force_1_vx	ground_force_1_vy	ground_force_1_vz	ground_force_1_px	ground_force_1_py	ground_force_1_pz	ground_force_1_mx	ground_force_1_my	ground_force_1_mz	ground_force_2_vx	ground_force_2_vy	ground_force_2_vz	ground_force_2_px	ground_force_2_py	ground_force_2_pz	ground_force_2_mx	ground_force_2_my	ground_force_2_mz
      0.96700000	      0.00000000	      0.00000000	      0.00000000	      0.00000000	      0.00000000	      0.00000000	      0.00000000	      0.00000000	      0.00000000	     19.93193626	    666.07838124	     -3.56135364	      0.21314622	     -0.00200000	      0.79280271	      0.00000000	     -0.67001108	      0.00000000
      0.96800000	      0.00000000	      0.00000000	      0.00000000	      0.00000000	      0.00000000	      0.00000000	      0.00000000	      0.00000000	      0.00000000	     19.95368749	    666.04051739	     -3.62485936	      0.21311780	     -0.00200000	      0.79265789	      0.00000000	     -0.67056502	     -0.00000000
      0.96900000	      0.00000000	      0.00000000	      0.00000000	      0.00000000	      0.00000000	      0.00000000	      0.00000000	      0.00000000	      0.00000000	     19.97535452	    665.99626467	     -3.68786179	      0.21308884	     -0.00200000	      0.79251263	      0.00000000	     -0.67115257	     -0.00000000
      0.97000000	      0.00000000	      0.00000000	      0.00000000	      0.00000000	      0.00000000	      0.00000000	      0.00000000	      0.00000000	      0.00000000	     19.99700218	    665.94674438	     -3.75046101	      0.21305942	     -0.00200000	      0.79236702	      0.00000000	     -0.67177095	      0.00000000
      0.97100000	      0.00000000	      0.00000000	      0.00000000	      0.00000000	      0.00000000	      0.00000000	      0.00000000	      0.00000000	      0.00000000	     20.01868561	    665.89044407	     -3.81255678	      0.21302946	     -0.00200000	      0.79222100	      0.00000000	     -0.67243539	     -0.00000000
      0.97200000	      0.00000000	      0.00000000	      0.00000000	      0.00000000	      0.00000000	      0.00000000	      0.00000000	      0.00000000	      0.00000000	     20.04044652	    665.82856327	     -3.87425129	      0.21299905	     -0.00200000	      0.79207465	      0.00000000	     -0.67314344	      0.00000000
      0.97300000	      0.00000000	      0.00000000	      0.00000000	      0.00000000	      0.00000000	      0.00000000	      0.00000000	      0.00000000	      0.00000000	     20.06236389	    665.75961560	     -3.93544203	      0.21296812	     -0.00200000	      0.79192789	      0.00000000	     -0.67391370	      0.00000000
      0.97400000	      0.00000000	      0.00000000	      0.00000000	      0.00000000	      0.00000000	      0.00000000	      0.00000000	      0.00000000	      0.00000000	     20.08445263	    665.68487883	     -3.99622563	      0.21293677	     -0.00200000	      0.79178081	      0.00000000	     -0.67474010	      0.00000000
      0.97500000	      0.00000000	      0.00000000	      0.00000000	      0.00000000	      0.00000000	      0.00000000	      0.00000000	      0.00000000	      0.00000000	     20.10681406	    665.60268402	     -4.05649357	      0.21290492	     -0.00200000	      0.79163333	      0.00000000	     -0.67564413	      0.00000000
      0.97600000	      0.00000000	      0.00000000	      0.00000000	      0.00000000	      0.00000000	      0.00000000	      0.00000000	      0.00000000	      0.00000000	     20.12943476	    665.51449150	     -4.11634524	      0.21287267	     -0.00200000	      0.79148552	      0.00000000	     -0.67661456	      0.00000000
      0.97700000	      0.00000000	      0.00000000	      0.00000000	      0.00000000	      0.00000000	      0.00000000	      0.00000000	      0.00000000	      0.00000000	     20.15242875	    665.41865841	     -4.17567701	      0.21283993	     -0.00200000	      0.79133731	      0.00000000	     -0.67767234	      0.00000000
      0.97800000	      0.00000000	      0.00000000	      0.00000000	      0.00000000	      0.00000000	      0.00000000	      0.00000000	      0.00000000	      0.00000000	     20.17576098	    665.31656682	     -4.23459806	      0.21280681	     -0.00200000	      0.79118877	      0.00000000	     -0.67880338	     -0.00000000
      0.97900000	      0.00000000	      0.00000000	      0.00000000	      0.00000000	      0.00000000	      0.00000000	      0.00000000	      0.00000000	      0.00000000	     20.19956037	    665.20654783	     -4.29301942	      0.21277322	     -0.00200000	      0.79103981	      0.00000000	     -0.68003042	      0.00000000
      0.98000000	      0.00000000	      0.00000000	      0.00000000	      0.00000000	      0.00000000	      0.00000000	      0.00000000	      0.00000000	      0.00000000	     20.22377104	    665.09021819	     -4.35105613	      0.21273928	     -0.00200000	      0.79089053	      0.00000000	     -0.68133764	      0.00000000
      0.98100000	      0.00000000	      0.00000000	      0.00000000	      0.00000000	      0.00000000	      0.00000000	      0.00000000	      0.00000000	      0.00000000	     20.24853081	    664.96583074	     -4.40863015	      0.21270492	     -0.00200000	      0.79074086	      0.00000000	     -0.68274904	      0.00000000
      0.98200000	      0.00000000	      0.00000000	      0.00000000	      0.00000000	      0.00000000	      0.00000000	      0.00000000	      0.00000000	      0.00000000	     20.27375847	    664.83508050	     -4.46584821	      0.21267026	     -0.00200000	      0.79059088	      0.00000000	     -0.68424733	     -0.00000000
      0.98300000	      0.00000000	      0.00000000	      0.00000000	      0.00000000	      0.00000000	      0.00000000	      0.00000000	      0.00000000	      0.00000000	     20.29960155	    664.69635069	     -4.52263698	      0.21263524	     -0.00200000	      0.79044053	      0.00000000	     -0.68586037	      0.00000000
      0.98400000	      0.00000000	      0.00000000	      0.00000000	      0.00000000	      0.00000000	      0.00000000	      0.00000000	      0.00000000	      0.00000000	     20.32596320	    664.55125809	     -4.57909815	      0.21259998	     -0.00200000	      0.79028991	      0.00000000	     -0.68757070	      0.00000000
      0.98500000	      0.00000000	      0.00000000	      0.00000000	      0.00000000	      0.00000000	      0.00000000	      0.00000000	      0.00000000	      0.00000000	     20.35300657	    664.39839453	     -4.63517583	      0.21256444	     -0.00200000	      0.79013896	      0.00000000	     -0.68940799	      0.00000000
      0.98600000	      0.00000000	      0.00000000	      0.00000000	      0.00000000	      0.00000000	      0.00000000	      0.00000000	      0.00000000	      0.00000000	     20.38062215	    664.23932463	     -4.69097449	      0.21252869	     -0.00200000	      0.78998778	      0.00000000	     -0.69134941	      0.00000000
      0.98700000	      0.00000000	      0.00000000	      0.00000000	      0.00000000	      0.00000000	      0.00000000	      0.00000000	      0.00000000	      0.00000000	     20.40897906	    664.07266632	     -4.74646706	      0.21249271	     -0.00200000	      0.78983633	      0.00000000	     -0.69342132	     -0.00000000
      0.98800000	      0.00000000	      0.00000000	      0.00000000	      0.00000000	      0.00000000	      0.00000000	      0.00000000	      0.00000000	      0.00000000	     20.43794394	    663.90006244	     -4.80175461	      0.21245657	     -0.00200000	      0.78968468	      0.00000000	     -0.69559672	      0.00000000
      0.98900000	      0.00000000	      0.00000000	      0.00000000	      0.00000000	      0.00000000	      0.00000000	      0.00000000	      0.00000000	      0.00000000	     20.46768665	    663.72007877	     -4.85683940	      0.21242028	     -0.00200000	      0.78953281	      0.00000000	     -0.69790038	      0.00000000
      0.99000000	      0.00000000	      0.00000000	      0.00000000	      0.00000000	      0.00000000	      0.00000000	      0.00000000	      0.00000000	      0.00000000	     20.49806118	    663.53435814	     -4.91180653	      0.21238388	     -0.00200000	      0.78938078	      0.00000000	     -0.70030609	     -0.00000000
      0.99100000	      0.00000000	      0.00000000	      0.00000000	      0.00000000	      0.00000000	      0.00000000	      0.00000000	      0.00000000	      0.00000000	     20.52923962	    663.34146634	     -4.96667994	      0.21234738	     -0.00200000	      0.78922858	      0.00000000	     -0.70283987	      0.00000000
      0.99200000	      0.00000000	      0.00000000	      0.00000000	      0.00000000	      0.00000000	      0.00000000	      0.00000000	      0.00000000	      0.00000000	     20.56106329	    663.14299405	     -5.02152075	      0.21231085	     -0.00200000	      0.78907629	      0.00000000	     -0.70547656	      0.00000000
      0.99300000	      0.00000000	      0.00000000	      0.00000000	      0.00000000	      0.00000000	      0.00000000	      0.00000000	      0.00000000	      0.00000000	     20.59369758	    662.93761134	     -5.07637477	      0.21227432	     -0.00200000	      0.78892390	      0.00000000	     -0.70824148	      0.00000000
      0.99400000	      0.00000000	      0.00000000	      0.00000000	      0.00000000	      0.00000000	      0.00000000	      0.00000000	      0.00000000	      0.00000000	     20.62697709	    662.72685677	     -5.13128452	      0.21223781	     -0.00200000	      0.78877147	      0.00000000	     -0.71110726	      0.00000000
      0.99500000	      0.00000000	      0.00000000	      0.00000000	      0.00000000	      0.00000000	      0.00000000	      0.00000000	      0.00000000	      0.00000000	     20.66105157	    662.50937432	     -5.18631684	      0.21220138	     -0.00200000	      0.78861904	     -0.00000000	     -0.71409487	      0.00000000
      0.99600000	      0.00000000	      0.00000000	      0.00000000	      0.00000000	      0.00000000	      0.00000000	      0.00000000	      0.00000000	      0.00000000	     20.69574893	    662.28667647	     -5.24148573	      0.21216505	     -0.00200000	      0.78846663	     -0.00000000	     -0.71717488	      0.00000000
      0.99700000	      0.00000000	      0.00000000	      0.00000000	      0.00000000	      0.00000000	      0.00000000	      0.00000000	      0.00000000	      0.00000000	     20.73120326	    662.05753759	     -5.29686878	      0.21212889	     -0.00200000	      0.78831432	      0.00000000	     -0.72036250	      0.00000000
      0.99800000	      0.00000000	      0.00000000	      0.00000000	      0.00000000	      0.00000000	      0.00000000	      0.00000000	      0.00000000	      0.00000000	     20.76723874	    661.82344407	     -5.35245556	      0.21209291	     -0.00200000	      0.78816211	      0.00000000	     -0.72362958	      0.00000000
      0.99900000	      0.00000000	      0.00000000	      0.00000000	      0.00000000	      0.00000000	      0.00000000	      0.00000000	      0.00000000	      0.00000000	     20.80396041	    661.58324853	     -5.40833522	      0.21205719	     -0.00200000	      0.78801011	      0.00000000	     -0.72698830	      0.00000000
      1.00000000	      0.00000000	      0.00000000	      0.00000000	      0.00000000	      0.00000000	      0.00000000	      0.00000000	      0.00000000	      0.00000000	     20.84119767	    661.33835912	     -5.46448021	      0.21202173	     -0.00200000	      0.78785831	     -0.00000000	     -0.73041515	      0.00000000
      1.00100000	      0.00000000	      0.00000000	      0.00000000	      0.00000000	      0.00000000	      0.00000000	      0.00000000	      0.00000000	      0.00000000	     20.87902278	    661.08773276	     -5.52099892	      0.21198661	     -0.00200000	      0.78770684	      0.00000000	     -0.73392177	     -0.00000000
      1.00200000	      0.00000000	      0.00000000	      0.00000000	      0.00000000	      0.00000000	      0.00000000	      0.00000000	      0.00000000	      0.00000000	     20.91726810	    660.83277762	     -5.57785109	      0.21195182	     -0.00200000	      0.78755567	      0.00000000	     -0.73748836	      0.00000000
      1.00300000	      0.00000000	      0.00000000	      0.00000000	      0.00000000	      0.00000000	      0.00000000	      0.00000000	      0.00000000	      0.00000000	     20.95597088	    660.57255492	     -5.63516351	      0.21191746	     -0.00200000	      0.78740494	      0.00000000	     -0.74112610	      0.00000000
